<svg width="20" height="20" viewBox="0 0 20 20" fill="none" xmlns="http://www.w3.org/2000/svg">
<g clip-path="url(#clip0_10_19)">
<path d="M16.9652 10.791C18.6356 10.7961 19.9898 12.1746 20 13.8797V16.902C19.9898 18.6086 18.6371 19.9898 16.9652 20H14.0047C12.3344 19.9895 10.984 18.607 10.9793 16.902V13.8797C10.9793 12.1738 12.3336 10.791 14.0047 10.791H16.9652ZM4.25039 10.791C4.4036 10.7748 4.55825 10.8026 4.69626 10.8711C4.83426 10.9396 4.94992 11.0459 5.02969 11.1777C5.11113 11.3109 5.15422 11.464 5.15422 11.6201C5.15422 11.7762 5.11113 11.9293 5.02969 12.0625C4.94992 12.1943 4.83426 12.3007 4.69626 12.3691C4.55825 12.4376 4.4036 12.4654 4.25039 12.4492H3.03477C2.25938 12.4492 1.62852 13.0879 1.62422 13.8797V16.8641C1.64375 17.6492 2.26563 18.2797 3.03477 18.2945H6.01563C6.20116 18.2955 6.38499 18.2592 6.55623 18.1879C6.72747 18.1165 6.88263 18.0114 7.0125 17.8789C7.27846 17.6079 7.42706 17.243 7.42618 16.8633V12.3828L7.41368 12.2715C7.4066 12.1256 7.43776 11.9803 7.50409 11.8501C7.57041 11.7199 7.66959 11.6094 7.7918 11.5293C7.92881 11.4403 8.08972 11.3952 8.25304 11.4C8.41637 11.4048 8.57433 11.4593 8.70586 11.5562C8.83884 11.655 8.93977 11.7907 8.99604 11.9465C9.05232 12.1022 9.06144 12.2711 9.02227 12.432V16.8926C9.02227 18.6035 7.66368 19.9906 5.9875 19.9906H3.03477C1.37305 19.9555 0.0343793 18.5887 4.34346e-06 16.8926V13.8797C-0.00135841 13.0622 0.317998 12.2768 0.889457 11.6922C1.16888 11.4065 1.50262 11.1796 1.87105 11.0248C2.23949 10.8701 2.63515 10.7906 3.03477 10.791H4.25039ZM16.9652 12.4492H14.0047C13.2309 12.4492 12.6031 13.0895 12.6031 13.8797V16.902C12.5998 17.281 12.7464 17.6461 13.0109 17.9176C13.1401 18.0502 13.2947 18.1553 13.4654 18.2268C13.6362 18.2983 13.8196 18.3346 14.0047 18.3336H16.9652C17.1503 18.3346 17.3337 18.2983 17.5045 18.2268C17.6752 18.1553 17.8298 18.0501 17.959 17.9176C18.2235 17.6461 18.3701 17.281 18.3668 16.902V13.8797C18.3672 13.5018 18.2199 13.1387 17.9563 12.868C17.8273 12.7357 17.6732 12.6305 17.503 12.5586C17.3328 12.4867 17.15 12.4495 16.9652 12.4492ZM16.9652 0C18.6231 0.0390625 19.9563 1.40625 19.9906 3.09805V6.11094C20.0021 6.92678 19.6936 7.71467 19.1313 8.30586C18.8563 8.595 18.5264 8.82634 18.1609 8.98632C17.7954 9.1463 17.4017 9.2317 17.0027 9.2375H15.7773C15.5758 9.21156 15.3906 9.11309 15.2564 8.96049C15.1221 8.80789 15.0481 8.61162 15.0481 8.4084C15.0481 8.20517 15.1221 8.00891 15.2564 7.85631C15.3906 7.70371 15.5758 7.60523 15.7773 7.5793H16.9652C17.152 7.57789 17.3365 7.53904 17.5079 7.46503C17.6794 7.39102 17.8342 7.28337 17.9633 7.14844C18.2273 6.87219 18.3721 6.50318 18.3664 6.12109V3.09805C18.3566 2.31211 17.7344 1.67969 16.9652 1.66758H14.0047C13.2309 1.66758 12.6031 2.30781 12.6031 3.09805V7.61719L12.5938 7.72109C12.5647 7.91913 12.4652 8.10005 12.3135 8.23064C12.1618 8.36124 11.9681 8.43274 11.768 8.43203C11.6607 8.42931 11.5551 8.40506 11.4574 8.3607C11.3597 8.31634 11.2719 8.25279 11.1992 8.17383C11.05 8.01217 10.9709 7.79797 10.9793 7.57812V3.09805C10.9752 2.2805 11.2922 1.49402 11.8621 0.907812C12.1406 0.62118 12.4736 0.39319 12.8416 0.237279C13.2096 0.0813685 13.6051 0.00069056 14.0047 0L16.9652 0ZM5.99532 0C7.66914 0.00507812 9.02344 1.38906 9.03008 3.09805V6.12031C9.03144 6.93781 8.71209 7.72323 8.14063 8.30781C7.86124 8.59354 7.52749 8.82047 7.15906 8.97523C6.79062 9.13 6.39494 9.20948 5.99532 9.20898H3.03477C1.36446 9.20391 0.0101606 7.82539 4.34346e-06 6.12031V3.09805C0.0101606 1.39141 1.3629 0.0101562 3.03477 0H5.99532ZM5.99532 1.66758H3.03477C2.84771 1.66399 2.66186 1.69835 2.48844 1.76857C2.31503 1.8388 2.15764 1.94344 2.02579 2.07617C1.75587 2.34768 1.6047 2.7152 1.60547 3.09805V6.12031C1.60145 6.31224 1.63565 6.50304 1.70606 6.68163C1.77648 6.86021 1.88171 7.02301 2.01563 7.16055C2.14799 7.29605 2.3067 7.403 2.48198 7.47482C2.65726 7.54664 2.84539 7.5818 3.03477 7.57812H5.99532C6.18176 7.57672 6.36602 7.53797 6.53724 7.46417C6.70846 7.39037 6.86315 7.28301 6.99219 7.14844C7.25618 6.87214 7.40109 6.5032 7.39571 6.12109V3.09805C7.39063 2.31016 6.76602 1.67266 5.99414 1.66758H5.99532Z" fill="#2C2F3D"/>
</g>
<defs>
<clipPath id="clip0_10_19">
<rect width="20" height="20" fill="white"/>
</clipPath>
</defs>
</svg>
